<svg width="22" height="21" viewBox="0 0 22 21" fill="none" xmlns="http://www.w3.org/2000/svg">
<g id="alarm">
<path id="combo sape" fill-rule="evenodd" clip-rule="evenodd" d="M6.49715 1.68712C6.87667 1.52116 7.04979 1.07897 6.88383 0.699452C6.71787 0.319938 6.27568 0.146817 5.89617 0.312775C3.63941 1.29963 1.72454 2.92017 0.375531 4.9491C0.146191 5.29403 0.239895 5.75957 0.584825 5.98891C0.929754 6.21825 1.39529 6.12454 1.62463 5.77961C2.81588 3.98796 4.50681 2.55748 6.49715 1.68712ZM16.104 0.312775C15.7245 0.146817 15.2823 0.319938 15.1163 0.699452C14.9504 1.07897 15.1235 1.52116 15.503 1.68712C17.4934 2.55748 19.1843 3.98796 20.3755 5.77961C20.6049 6.12454 21.0704 6.21824 21.4153 5.9889C21.7603 5.75957 21.854 5.29403 21.6246 4.9491C20.2756 2.92017 18.3607 1.29963 16.104 0.312775ZM17.9916 16.6678C19.2475 15.1205 20.0001 13.1481 20.0001 11C20.0001 6.02944 15.9707 2 11.0001 2C6.02956 2 2.00012 6.02944 2.00012 11C2.00012 13.1481 2.75269 15.1204 4.00856 16.6677L2.34594 19.6331C2.14337 19.9944 2.27204 20.4515 2.63334 20.6541C2.99464 20.8567 3.45175 20.728 3.65432 20.3667L5.09693 17.7937C6.67715 19.168 8.74147 20 11.0001 20C13.2587 20 15.323 19.168 16.9033 17.7938L18.346 20.3667C18.5485 20.728 19.0056 20.8567 19.3669 20.6541C19.7282 20.4515 19.8569 19.9944 19.6543 19.6331L17.9916 16.6678ZM11.0001 5.25C11.4143 5.25 11.7501 5.58579 11.7501 6V10.5986L14.4161 12.376C14.7608 12.6057 14.8539 13.0714 14.6242 13.416C14.3944 13.7607 13.9287 13.8538 13.5841 13.624L10.5841 11.624C10.3754 11.4849 10.2501 11.2508 10.2501 11V6C10.2501 5.58579 10.5859 5.25 11.0001 5.25Z" fill="#FEB85B"/>
</g>
</svg>
