<svg width="37" height="50" viewBox="0 0 37 50" fill="none" xmlns="http://www.w3.org/2000/svg">
<rect x="0.242676" y="6.79614" width="36.4078" height="36.4078" rx="18.2039" fill="#8D75F5"/>
<path d="M27.3189 26.63C27.3189 27.9181 27.0612 29.0264 26.5732 29.8356C25.9468 30.8751 24.9731 31.425 23.7577 31.425C21.4379 31.425 19.8783 28.5147 18.2277 25.4338C17.0284 23.1958 15.54 20.4109 14.3162 20.4109C13.7264 20.4109 13.0036 21.1276 12.43 22.281C11.7738 23.6379 11.4254 25.1229 11.4097 26.63C11.4097 27.5708 11.581 28.3724 11.8915 28.8879C12.1799 29.3667 12.5753 29.5893 13.1352 29.5893C14.1869 29.5893 15.478 27.3712 15.9025 26.6453C16.0251 26.435 16.2263 26.2819 16.4618 26.2199C16.6972 26.1579 16.9477 26.1919 17.158 26.3145C17.3684 26.4371 17.5214 26.6383 17.5835 26.8738C17.6455 27.1092 17.6115 27.3597 17.4888 27.5701C16.8073 28.7388 16.2245 29.5587 15.6532 30.1538C14.8324 31.0089 14.0102 31.425 13.1352 31.425C11.9198 31.425 10.9461 30.8751 10.3197 29.8356C9.83174 29.0264 9.57397 27.9181 9.57397 26.63C9.57397 23.2669 11.3775 18.5752 14.3162 18.5752C16.636 18.5752 18.1956 21.4855 19.8462 24.5664C21.047 26.8044 22.5362 29.5893 23.7577 29.5893C24.3176 29.5893 24.713 29.3667 25.0014 28.8879C25.3119 28.3724 25.4832 27.5708 25.4832 26.63C25.4677 25.123 25.1196 23.6379 24.4637 22.281C23.89 21.1276 23.1672 20.4109 22.5767 20.4109C22.1392 20.4109 21.6122 20.7933 21.0095 21.5452C20.8574 21.7353 20.636 21.8571 20.394 21.8839C20.152 21.9108 19.9093 21.8404 19.7192 21.6882C19.5291 21.5361 19.4073 21.3147 19.3804 21.0727C19.3536 20.8307 19.424 20.588 19.5762 20.3979C20.559 19.1718 21.5403 18.5752 22.5767 18.5752C23.9267 18.5752 25.1773 19.6009 26.1066 21.4633C26.8862 23.0753 27.3001 24.8396 27.3189 26.63Z" fill="white"/>
</svg>
