<svg width="124" height="50" viewBox="0 0 124 50" fill="none" xmlns="http://www.w3.org/2000/svg">
<g clip-path="url(#clip0_595_146)">
<rect x="0.242676" y="6.79614" width="36.4078" height="36.4078" rx="18.2039" fill="#8D75F5"/>
<path d="M27.3189 26.6299C27.3189 27.9179 27.0612 29.0262 26.5732 29.8355C25.9468 30.8749 24.9731 31.4249 23.7577 31.4249C21.4379 31.4249 19.8783 28.5145 18.2277 25.4337C17.0284 23.1956 15.54 20.4108 14.3162 20.4108C13.7264 20.4108 13.0036 21.1274 12.43 22.2809C11.7738 23.6377 11.4254 25.1228 11.4097 26.6299C11.4097 27.5707 11.581 28.3723 11.8915 28.8878C12.1799 29.3666 12.5753 29.5892 13.1352 29.5892C14.1869 29.5892 15.478 27.3711 15.9025 26.6452C16.0251 26.4348 16.2263 26.2818 16.4618 26.2198C16.6972 26.1577 16.9477 26.1918 17.158 26.3144C17.3684 26.437 17.5214 26.6382 17.5835 26.8737C17.6455 27.1091 17.6115 27.3596 17.4888 27.5699C16.8073 28.7387 16.2245 29.5586 15.6532 30.1537C14.8324 31.0088 14.0102 31.4249 13.1352 31.4249C11.9198 31.4249 10.9461 30.8749 10.3197 29.8355C9.83174 29.0262 9.57397 27.9179 9.57397 26.6299C9.57397 23.2668 11.3775 18.5751 14.3162 18.5751C16.636 18.5751 18.1956 21.4854 19.8462 24.5663C21.047 26.8043 22.5362 29.5892 23.7577 29.5892C24.3176 29.5892 24.713 29.3666 25.0014 28.8878C25.3119 28.3723 25.4832 27.5707 25.4832 26.6299C25.4677 25.1228 25.1196 23.6378 24.4637 22.2809C23.89 21.1274 23.1672 20.4108 22.5767 20.4108C22.1392 20.4108 21.6122 20.7932 21.0095 21.5451C20.8574 21.7351 20.636 21.857 20.394 21.8838C20.152 21.9106 19.9093 21.8402 19.7192 21.6881C19.5291 21.5359 19.4073 21.3145 19.3804 21.0725C19.3536 20.8306 19.424 20.5878 19.5762 20.3978C20.559 19.1717 21.5403 18.5751 22.5767 18.5751C23.9267 18.5751 25.1773 19.6008 26.1066 21.4632C26.8862 23.0752 27.3001 24.8394 27.3189 26.6299Z" fill="white"/>
<path d="M58.0394 35.3223V15.8248H61.0476V35.3223H58.0394ZM45.3103 35.3223V15.8248H48.3185V35.3223H45.3103ZM46.6194 27.0498V24.153H59.3764V27.0498H46.6194Z" fill="#16151C"/>
<path d="M66.4997 35.3223V15.8248H74.8001C75.9142 15.8248 76.9355 16.1033 77.864 16.6604C78.811 17.1989 79.563 17.9417 80.1201 18.8887C80.6772 19.8171 80.9557 20.8663 80.9557 22.0361C80.9557 23.0946 80.6772 24.0787 80.1201 24.9886C79.563 25.8985 78.8203 26.632 77.8918 27.1891C76.9634 27.7276 75.9328 27.9968 74.8001 27.9968H69.5079V35.3223H66.4997ZM78.0868 35.3223L73.1288 26.5206L76.2206 25.8242L81.7356 35.3502L78.0868 35.3223ZM69.5079 25.1H75.0786C75.6171 25.1 76.0999 24.9701 76.527 24.7101C76.9541 24.4316 77.2883 24.0602 77.5297 23.5959C77.7711 23.1132 77.8918 22.5839 77.8918 22.0083C77.8918 21.3584 77.734 20.792 77.4183 20.3092C77.1212 19.8079 76.6941 19.4179 76.137 19.1394C75.5985 18.8608 74.9858 18.7216 74.2987 18.7216H69.5079V25.1Z" fill="#16151C"/>
<path d="M85.8666 35.3223V15.8248H88.8191L95.9218 27.384L94.5012 27.3562L101.687 15.8248H104.473V35.3223H101.465V27.3283C101.465 25.6571 101.502 24.153 101.576 22.816C101.669 21.4791 101.817 20.1514 102.022 18.833L102.412 19.8636L96.0332 29.7237H94.1949L88.0114 19.975L88.3178 18.833C88.522 20.0771 88.6613 21.3584 88.7356 22.6768C88.8284 23.9766 88.8748 25.5271 88.8748 27.3283V35.3223H85.8666Z" fill="#16151C"/>
<path d="M115.956 35.6008C114.897 35.6008 113.913 35.4616 113.003 35.183C112.112 34.9045 111.295 34.4867 110.552 33.9296C109.828 33.354 109.178 32.6484 108.602 31.8128L110.663 29.4452C111.573 30.745 112.446 31.6456 113.282 32.147C114.117 32.6484 115.111 32.899 116.262 32.899C116.968 32.899 117.608 32.7876 118.184 32.5648C118.76 32.342 119.215 32.0356 119.549 31.6456C119.883 31.2557 120.05 30.81 120.05 30.3087C120.05 29.9744 119.994 29.6587 119.883 29.3616C119.772 29.0645 119.595 28.7953 119.354 28.5539C119.131 28.3125 118.834 28.0897 118.463 27.8854C118.11 27.6811 117.692 27.5047 117.209 27.3562C116.726 27.1891 116.169 27.0498 115.538 26.9384C114.535 26.7341 113.662 26.4649 112.92 26.1306C112.177 25.7964 111.555 25.3786 111.053 24.8772C110.552 24.3758 110.181 23.8095 109.939 23.1781C109.698 22.5282 109.577 21.804 109.577 21.0056C109.577 20.2257 109.744 19.5015 110.079 18.833C110.431 18.1645 110.905 17.5889 111.499 17.1061C112.112 16.6047 112.827 16.224 113.644 15.9641C114.461 15.6855 115.343 15.5463 116.29 15.5463C117.293 15.5463 118.212 15.6762 119.047 15.9362C119.883 16.1962 120.626 16.5861 121.276 17.1061C121.926 17.6074 122.464 18.2295 122.891 18.9723L120.774 21.0613C120.403 20.4485 119.985 19.9378 119.521 19.5293C119.057 19.1022 118.546 18.7866 117.989 18.5823C117.432 18.3595 116.838 18.2481 116.206 18.2481C115.482 18.2481 114.851 18.3595 114.312 18.5823C113.774 18.8051 113.347 19.1208 113.031 19.5293C112.734 19.9193 112.585 20.3835 112.585 20.922C112.585 21.312 112.66 21.6741 112.808 22.0083C112.957 22.324 113.18 22.6118 113.477 22.8718C113.792 23.1132 114.21 23.336 114.73 23.5402C115.25 23.7259 115.872 23.8931 116.596 24.0416C117.618 24.2644 118.527 24.5523 119.326 24.9051C120.124 25.2393 120.802 25.6385 121.359 26.1028C121.916 26.567 122.334 27.0869 122.613 27.6626C122.91 28.2382 123.058 28.8603 123.058 29.5288C123.058 30.7729 122.771 31.8499 122.195 32.7598C121.619 33.6697 120.802 34.3753 119.744 34.8766C118.685 35.3594 117.423 35.6008 115.956 35.6008Z" fill="#16151C"/>
</g>
<defs>
<clipPath id="clip0_595_146">
<rect width="123.058" height="50" fill="white"/>
</clipPath>
</defs>
</svg>
